<?xml version="1.0" encoding="UTF-8" standalone="no"?>
<svg width="53px" height="28px" viewBox="0 0 53 28" version="1.1" xmlns="http://www.w3.org/2000/svg" xmlns:xlink="http://www.w3.org/1999/xlink">
    <!-- Generator: Sketch 45.1 (43504) - http://www.bohemiancoding.com/sketch -->
    <title>Page 1</title>
    <desc>Created with Sketch.</desc>
    <defs>
        <polygon id="path-1" points="52.8919599 27.9633424 0 27.9633424 0 0.208685109 52.8919599 0.208685109"></polygon>
    </defs>
    <g id="simbols" stroke="none" stroke-width="1" fill="none" fill-rule="evenodd">
        <g id="header-320" transform="translate(-5.000000, -11.000000)">
            <g id="Page-1" transform="translate(5.000000, 11.000000)">
                <g id="Group-3" transform="translate(0.000000, 0.022417)">
                    <mask id="mask-2" fill="white">
                        <use xlink:href="#path-1"></use>
                    </mask>
                    <g id="Clip-2"></g>
                    <path d="M40.3355364,6.5583051 C40.3355364,5.96044422 40.2454765,5.38384472 40.0878132,4.83497746 L37.5951423,4.83497746 C37.8452047,5.3588857 37.9885988,5.94126275 37.9885988,6.5583051 C37.9885988,8.78774613 36.1647104,10.5891862 33.9080666,10.5891862 C31.651189,10.5891862 29.8123296,8.78774613 29.8123296,6.5583051 C29.8123296,4.46151662 31.4373844,2.73194923 33.5071247,2.53204599 L46.4668611,2.52649954 C47.6474645,2.52649954 48.8280679,3.0284531 49.6348642,4.00324135 C51.0704424,5.7166316 50.8164033,8.27100205 49.0673699,9.67356011 C48.3199897,10.294069 47.3929576,10.6042079 46.4668611,10.5891862 L44.2944292,10.5891862 L44.2944292,5.12986362 C44.2944292,4.96739891 44.160392,4.83497746 44.010682,4.83497746 L41.9633983,4.83497746 L41.9633983,12.8930421 L46.4668611,12.8930421 C47.9160067,12.9076015 49.3658542,12.4352291 50.5618964,11.4604408 C53.2821732,9.2460214 53.6854544,5.2435658 51.4285767,2.54175228 C50.1731183,1.02063889 48.3199897,0.223568078 46.4668611,0.223568078 L33.4844342,0.224030282 C30.1384166,0.44057286 27.4808308,3.19923748 27.4808308,6.5583051 C27.4808308,10.0578827 30.3655547,12.9076015 33.9080666,12.9076015 C37.4503447,12.9076015 40.3355364,10.0578827 40.3355364,6.5583051 L40.3355364,6.5583051 Z M52.5420446,25.5710669 L44.0920868,25.5710669 L44.0920868,27.5936717 C44.0920868,27.7565986 44.2268258,27.8892511 44.390805,27.8892511 L52.8260257,27.8892511 L52.8260257,25.8664153 C52.8260257,25.7037195 52.6917545,25.5710669 52.5420446,25.5710669 L52.5420446,25.5710669 Z M44.0920868,22.6917671 L52.5277753,22.6917671 C52.6917545,22.6917671 52.8260257,22.5586523 52.8260257,22.3964187 L52.8260257,20.3883734 L44.0920868,20.3883734 L44.0920868,22.6917671 Z M39.4761076,15.4850822 L39.4761076,22.36314 L31.5716555,15.1014529 L31.5716555,27.8746917 L33.6189393,27.8746917 C33.7833863,27.8746917 33.9031543,27.7418081 33.9031543,27.5793434 L33.9031543,20.7061387 L41.8080742,27.9634349 L41.8080742,17.4938208 L52.5268397,17.4938208 C52.6917545,17.4938208 52.8260257,17.3754966 52.8260257,17.2134941 L52.8260257,15.1899649 L39.7603226,15.1899649 C39.6108466,15.1899649 39.4761076,15.3228486 39.4761076,15.4850822 L39.4761076,15.4850822 Z M9.22674193,17.1980102 C9.22674193,17.3609372 9.3614809,17.4938208 9.52616185,17.4938208 L12.4405938,17.4938208 L12.4405938,27.8746917 L14.4881114,27.8746917 C14.6373535,27.8746917 14.7718586,27.7124581 14.7718586,27.519719 L14.7718586,17.4938208 L17.6268743,17.4938208 C17.8212634,17.4938208 17.9857104,17.3609372 17.9857104,17.1980102 L17.9857104,15.1899649 L9.22674193,15.1899649 L9.22674193,17.1980102 Z M23.9149267,6.5583051 C23.9149267,4.32793966 22.0915061,2.51194012 19.8341606,2.51194012 C17.5775168,2.51194012 15.7391253,4.32793966 15.7391253,6.5583051 C15.7391253,8.78774613 17.5775168,10.5891862 19.8341606,10.5891862 C22.0915061,10.5891862 23.9149267,8.78774613 23.9149267,6.5583051 L23.9149267,6.5583051 Z M26.2613964,6.5583051 C26.2613964,10.0578827 23.3769065,12.9076015 19.8341606,12.9076015 C16.2914147,12.9076015 13.4076265,10.0578827 13.4076265,6.5583051 C13.4076265,3.05826526 16.2914147,0.208546448 19.8341606,0.208546448 C23.3769065,0.208546448 26.2613964,3.05826526 26.2613964,6.5583051 L26.2613964,6.5583051 Z M6.48424256,20.7867933 C5.49779426,20.3883734 4.54152188,20.3728896 4.43672491,20.3728896 C4.43672491,20.3728896 3.83882074,20.3585612 3.27039073,20.1364722 C2.49330246,19.8265644 2.38850549,19.354423 2.38850549,18.9405194 C2.38850549,18.9405194 2.4186814,18.3648443 2.82196261,17.9664244 C3.16629552,17.6264734 3.70408178,17.4640087 4.43672491,17.4640087 C5.57241532,17.4640087 5.9763983,17.9514028 6.18529048,18.3207038 C6.3345326,18.615821 6.40938758,18.9114005 6.45453449,19.1177746 C6.45453449,19.1177746 6.49547081,19.3983324 6.70857358,19.3981013 L8.51678922,19.3981013 C8.6817041,19.3981013 8.80053638,19.2656799 8.80053638,19.0879624 L8.80053638,19.0590747 C8.74088632,18.4686091 8.50181822,17.2719629 7.56028291,16.3269868 C6.58880561,15.3521985 5.31814231,15.1601528 4.43672491,15.1601528 C3.06126463,15.1601528 1.9555162,15.5592659 1.17842793,16.3417773 C0.0867148172,17.4196371 0.0570067465,18.7933074 0.0570067465,18.9405194 C0.0570067465,20.4912138 0.879475851,21.6726072 2.38850549,22.2783256 C3.3751877,22.6619549 4.33169401,22.6769765 4.43672491,22.6769765 C4.43672491,22.6769765 5.03439515,22.6917671 5.60212339,22.9277222 C6.37967951,23.2373989 6.48424256,23.7254863 6.48424256,24.1384656 C6.48424256,24.1384656 6.45453449,24.5079977 6.24517446,24.8474866 C5.93101747,25.3494401 5.34831822,25.6004169 4.43672491,25.6004169 C3.58407989,25.6004169 3.00184849,25.3346496 2.68792541,24.8176744 C2.53798153,24.5965098 2.46336047,24.3453019 2.43318455,24.1682778 C2.43318455,24.1537184 2.3908447,23.9170699 2.17937938,23.9020483 L0.341455675,23.9020483 C0.191511791,23.9170699 0.0719777427,24.0499536 0.0719777427,24.1976277 C0.0719777427,24.227671 0.0867148172,24.2565587 0.0867148172,24.2861398 C0.131627806,24.6702313 0.266600694,25.2754875 0.609530076,25.8957653 C1.34240712,27.1806924 2.70313033,27.9038106 4.43672491,27.9038106 C6.63348468,27.9038106 7.70952503,26.9003657 8.23304206,26.0436705 C8.80053638,25.1428349 8.81550738,24.2565587 8.81550738,24.1537184 C8.81550738,22.6027928 7.99397396,21.407071 6.48424256,20.7867933 L6.48424256,20.7867933 Z M5.71557547,7.66227937 L-7.01765448e-05,12.9076015 L-7.01765448e-05,0.223568078 L2.01727156,0.223568078 C2.18195252,0.223568078 2.30172049,0.355989526 2.30172049,0.518223133 L2.30172049,7.36323338 L5.71557547,4.23064572 L9.12943045,7.36323338 L9.12943045,0.518223133 C9.12943045,0.355989526 9.26370158,0.223568078 9.42768077,0.223568078 L11.4312211,0.223568078 L11.4312211,12.9076015 L5.71557547,7.66227937 Z" id="Fill-1" fill="#FFFFFF" mask="url(#mask-2)"></path>
                </g>
                <path d="M23.8938503,15.2124049 C20.3515723,15.2124049 17.4663806,18.0618926 17.4663806,21.5623947 C17.4663806,25.0617412 20.3515723,27.91146 23.8938503,27.91146 C27.4365962,27.91146 30.3210861,25.0617412 30.3210861,21.5623947 C30.3210861,18.0618926 27.4365962,15.2124049 23.8938503,15.2124049" id="Fill-4" fill="#ED3243"></path>
                <path d="M23.4301003,23.4661668 C23.0179301,23.4661668 22.5196766,23.2396868 22.5196766,22.7282581 C22.5196766,22.2452549 22.8553544,21.9887317 23.4782882,21.9697813 L24.4464906,23.0025762 C24.1784162,23.3339764 23.7087012,23.4661668 23.4301003,23.4661668 M27.476246,24.3191643 L26.1244118,22.8507421 L27.1644282,21.0897449 L25.8083834,21.0897449 C25.6551646,21.0897449 25.588263,21.1653152 25.5304843,21.2503608 C25.4827642,21.3259311 25.3384345,21.5154348 25.1562094,21.8181784 L23.200623,19.7158435 L25.1849818,19.7158435 C25.4055701,19.7158435 25.4628809,19.6116165 25.4628809,19.4410632 L25.4628809,18.3994865 L21.8197825,18.3994865 L21.5229358,18.3994865 C21.3018796,18.3994865 21.2443349,18.5032513 21.2443349,18.6740356 L21.2443349,19.6026035 L22.548449,20.9850557 C21.8775612,21.1366586 21.09135,21.7523143 21.09135,22.7187829 C21.09135,23.9970081 22.078734,24.7735108 23.4593405,24.7735108 C24.1980656,24.7644978 24.8588948,24.4984994 25.3571482,23.9780577 L26.0565745,24.6316142 L27.3227933,24.6316142 C27.4954276,24.6316142 27.5918033,24.4425727 27.476246,24.3191643" id="Fill-6" fill="#FEFEFE"></path>
            </g>
        </g>
    </g>
</svg>